<svg width="25" height="25" viewBox="0 0 25 25" fill="none" xmlns="http://www.w3.org/2000/svg">
<path opacity="0.7" d="M21.2056 15.0244L16.789 13.0453L16.7768 13.0397C16.5476 12.9416 16.2974 12.9023 16.0491 12.9252C15.8008 12.9481 15.5621 13.0326 15.3547 13.1709C15.3302 13.1871 15.3068 13.2046 15.2843 13.2234L13.0025 15.1688C11.5568 14.4666 10.0643 12.9853 9.36216 11.5584L11.3103 9.24188C11.329 9.21844 11.3468 9.19501 11.3637 9.16969C11.4991 8.96279 11.5813 8.72562 11.6029 8.47929C11.6245 8.23297 11.5848 7.98512 11.4875 7.75782V7.74657L9.50278 3.32251C9.3741 3.02557 9.15284 2.77821 8.87202 2.61735C8.5912 2.4565 8.26589 2.39078 7.94466 2.43001C6.67432 2.59717 5.50826 3.22104 4.66428 4.1851C3.8203 5.14915 3.35611 6.38747 3.35841 7.66876C3.35841 15.1125 9.41466 21.1688 16.8584 21.1688C18.1397 21.1711 19.378 20.7069 20.3421 19.8629C21.3061 19.0189 21.93 17.8528 22.0972 16.5825C22.1365 16.2614 22.0709 15.9361 21.9102 15.6553C21.7495 15.3745 21.5024 15.1532 21.2056 15.0244ZM16.8584 19.6688C13.6769 19.6653 10.6266 18.3999 8.37696 16.1502C6.12728 13.9005 4.86188 10.8503 4.85841 7.66876C4.85488 6.75328 5.1847 5.86781 5.78628 5.17773C6.38787 4.48765 7.22007 4.04013 8.12747 3.91876C8.1271 3.9225 8.1271 3.92626 8.12747 3.93001L10.0962 8.33626L8.15841 10.6556C8.13874 10.6783 8.12087 10.7024 8.10497 10.7278C7.96389 10.9443 7.88113 11.1936 7.8647 11.4514C7.84828 11.7093 7.89875 11.9671 8.01122 12.1997C8.86059 13.9369 10.6109 15.6741 12.3668 16.5225C12.6012 16.6339 12.8604 16.6827 13.1192 16.6639C13.378 16.6452 13.6276 16.5596 13.8434 16.4156C13.8675 16.3994 13.8906 16.3819 13.9128 16.3631L16.1918 14.4188L20.5981 16.3922C20.5981 16.3922 20.6056 16.3922 20.6084 16.3922C20.4885 17.3009 20.0417 18.1348 19.3515 18.7378C18.6612 19.3409 17.775 19.6718 16.8584 19.6688Z" fill="#202924"/>
</svg>
