<svg width="25" height="25" viewBox="0 0 25 25" fill="none" xmlns="http://www.w3.org/2000/svg">
<g clip-path="url(#clip0_24_1122)">
<path fill-rule="evenodd" clip-rule="evenodd" d="M10.0725 0.168945H14.6439C19.4319 0.168945 23.3273 4.06344 23.3273 8.85056V12.9685C23.3273 17.7557 19.4319 21.6502 14.6439 21.6502H10.2877L7.63733 24.0506C7.55186 24.1283 7.44171 24.1689 7.33065 24.1689C7.26804 24.1689 7.20496 24.1561 7.14555 24.1296C6.9801 24.0565 6.8736 23.8929 6.8736 23.7119V21.0423C3.57967 19.7374 1.38904 16.5335 1.38904 12.9685V8.85056C1.38904 4.06344 5.28445 0.168945 10.0725 0.168945ZM13.1518 3.63411C12.9086 3.56418 12.6559 3.70541 12.5869 3.94901C12.5178 4.19171 12.6586 4.44445 12.9013 4.51347C15.6248 5.28816 17.7944 7.46279 18.5632 10.1882C18.6199 10.3893 18.8032 10.5213 19.0029 10.5213C19.044 10.5213 19.0856 10.5159 19.1272 10.5044C19.3699 10.4359 19.5116 10.1831 19.443 9.94044C18.5888 6.91159 16.1783 4.49564 13.1518 3.63411ZM18.3988 14.1056L15.5898 12.281C15.2826 12.0813 14.917 12.0137 14.5591 12.0877C14.2008 12.1631 13.8928 12.3747 13.693 12.6832L13.5609 12.8862C12.3452 12.4844 11.0047 11.9712 10.2021 9.64799L10.5344 9.35914C11.1048 8.86324 11.1646 7.99577 10.6687 7.42446L8.47126 4.89653C8.30581 4.70594 8.01695 4.68629 7.82636 4.85128L6.44654 6.05057C5.23628 7.1027 5.80164 8.65894 5.98766 9.17038C5.99589 9.19323 6.00595 9.21517 6.01783 9.23665C6.06582 9.32257 7.21164 11.3674 9.06222 13.2523C10.9201 15.1449 14.2744 16.8926 14.3772 16.9434C14.7602 17.192 15.1912 17.3113 15.6176 17.3113C16.3663 17.3113 17.1003 16.9443 17.5382 16.2715L18.5336 14.7386C18.6707 14.5261 18.6104 14.2431 18.3988 14.1056ZM16.7712 15.7733C16.3594 16.4077 15.5084 16.5878 14.8366 16.1545C14.8032 16.1371 11.4709 14.4017 9.71443 12.6124C8.07271 10.9401 6.98266 9.08217 6.83411 8.82302C6.47213 7.80792 6.53612 7.18405 7.04618 6.74071L8.0814 5.84125L9.97906 8.0241C10.1477 8.21789 10.1281 8.50126 9.93518 8.669L9.37438 9.15621C9.23773 9.27504 9.18379 9.46289 9.23727 9.63565C10.1933 12.7424 12.0524 13.3527 13.4098 13.7983L13.4101 13.7984L13.608 13.8638C13.8059 13.9305 14.0226 13.8542 14.1359 13.6796L14.4599 13.1805C14.5267 13.0772 14.6291 13.0073 14.7479 12.9821C14.8672 12.9566 14.9888 12.9803 15.092 13.0475L17.518 14.6229L16.7712 15.7733ZM13.4014 7.59407C13.1582 7.52414 12.9055 7.66537 12.8365 7.90852C12.7674 8.15121 12.9082 8.40396 13.1509 8.47297C13.8319 8.66676 14.3744 9.21019 14.5664 9.89165C14.623 10.0927 14.8063 10.2248 15.0061 10.2248C15.0472 10.2248 15.0888 10.2193 15.1304 10.2079C15.3731 10.1394 15.5147 9.88708 15.4462 9.64393C15.1688 8.65945 14.3849 7.87378 13.4014 7.59407ZM17.0042 10.3066C16.9626 10.318 16.921 10.3235 16.8799 10.3235C16.6802 10.3235 16.4974 10.1919 16.4402 9.99076C15.9864 8.38242 14.7062 7.09857 13.0988 6.64152C12.8561 6.57251 12.7153 6.31976 12.7843 6.07707C12.8533 5.83438 13.1061 5.69224 13.3488 5.76217C15.2592 6.30605 16.7807 7.83076 17.3201 9.74259C17.3886 9.98528 17.2474 10.238 17.0042 10.3066Z" fill="#767676"/>
</g>
<defs>
<clipPath id="clip0_24_1122">
<rect width="24" height="24" fill="white" transform="translate(0.358398 0.168945)"/>
</clipPath>
</defs>
</svg>
