<svg width="32" height="32" viewBox="0 0 32 32" fill="none" xmlns="http://www.w3.org/2000/svg">
<path d="M6.06333 15.4564C6.10817 15.434 6.15304 15.4127 6.19676 15.3925C6.95688 15.0405 7.72708 14.7109 8.49617 14.3813C8.53765 14.3813 8.60714 14.333 8.64638 14.3174C8.7058 14.2916 8.76523 14.2669 8.82465 14.2411C8.939 14.1918 9.05336 14.1436 9.16659 14.0943C9.3953 13.9967 9.62287 13.8992 9.85158 13.8016L11.2205 13.2153C12.133 12.8251 13.0468 12.4339 13.9594 12.0437C14.872 11.6536 15.7857 11.2623 16.6982 10.8722C17.6108 10.482 18.5245 10.0907 19.4371 9.7006C20.3497 9.31045 21.2634 8.91918 22.176 8.52903C22.3789 8.44159 22.5987 8.31153 22.8162 8.27342C22.9989 8.2409 23.1772 8.17812 23.361 8.14337C23.7097 8.07722 24.0942 8.05032 24.4283 8.19494C24.5438 8.24539 24.6503 8.31602 24.7389 8.40459C25.1627 8.82389 25.1032 9.51225 25.0135 10.102C24.3891 14.212 23.7646 18.3231 23.139 22.4331C23.0538 22.997 22.9372 23.6159 22.4922 23.9724C22.1155 24.274 21.5796 24.3076 21.1143 24.1798C20.649 24.0509 20.2387 23.7807 19.8362 23.515C18.1669 22.4096 16.4964 21.3041 14.8271 20.1987C14.4302 19.9364 13.9885 19.5933 13.993 19.1168C13.9952 18.8298 14.1668 18.5742 14.3417 18.3466C15.7924 16.4542 17.8855 15.1537 19.4427 13.3487C19.6625 13.0942 19.8351 12.6346 19.5335 12.4877C19.3542 12.4002 19.1479 12.5191 18.9842 12.6323C16.9258 14.0617 14.8686 15.4923 12.8102 16.9217C12.1387 17.3881 11.4346 17.8679 10.6252 17.9823C9.90093 18.0854 9.1722 17.8836 8.47151 17.6773C7.88404 17.5047 7.29768 17.3275 6.71358 17.1448C6.40303 17.0484 6.08239 16.9441 5.84247 16.7255C5.60255 16.5069 5.46467 16.1392 5.6093 15.8477C5.70011 15.6649 5.87612 15.5495 6.06111 15.4553L6.06333 15.4564Z" fill="#CCEEFF"/>
</svg>
