<svg width="25" height="25" viewBox="0 0 25 25" fill="none" xmlns="http://www.w3.org/2000/svg">
<path d="M0.358398 24.1689L2.04539 18.0059C1.0044 16.2019 0.457398 14.1569 0.458398 12.0599C0.461398 5.50394 5.79639 0.168945 12.3514 0.168945C15.5324 0.169945 18.5184 1.40895 20.7644 3.65695C23.0093 5.90495 24.2453 8.89295 24.2443 12.0709C24.2413 18.6279 18.9064 23.9629 12.3514 23.9629C10.3614 23.9619 8.40038 23.4629 6.66338 22.5149L0.358398 24.1689ZM6.95538 20.3619C8.63138 21.3569 10.2314 21.9529 12.3474 21.9539C17.7954 21.9539 22.2333 17.5199 22.2363 12.0689C22.2383 6.60695 17.8214 2.17895 12.3554 2.17695C6.90338 2.17695 2.46839 6.61095 2.46639 12.0609C2.46539 14.2859 3.11739 15.9519 4.21239 17.6949L3.21339 21.3429L6.95538 20.3619ZM18.3424 14.8979C18.2684 14.7739 18.0704 14.6999 17.7724 14.5509C17.4754 14.4019 16.0144 13.6829 15.7414 13.5839C15.4694 13.4849 15.2714 13.4349 15.0724 13.7329C14.8744 14.0299 14.3044 14.6999 14.1314 14.8979C13.9584 15.0959 13.7844 15.1209 13.4874 14.9719C13.1904 14.8229 12.2324 14.5099 11.0974 13.4969C10.2144 12.7089 9.61738 11.7359 9.44438 11.4379C9.27138 11.1409 9.42638 10.9799 9.57438 10.8319C9.70838 10.6989 9.87138 10.4849 10.0204 10.3109C10.1714 10.1389 10.2204 10.0149 10.3204 9.81595C10.4194 9.61795 10.3704 9.44395 10.2954 9.29495C10.2204 9.14695 9.62638 7.68395 9.37938 7.08895C9.13738 6.50995 8.89238 6.58794 8.71038 6.57895L8.14038 6.56895C7.94238 6.56895 7.62038 6.64295 7.34838 6.94095C7.07638 7.23895 6.30838 7.95695 6.30838 9.41995C6.30838 10.8829 7.37338 12.2959 7.52138 12.4939C7.67038 12.6919 9.61638 15.6939 12.5974 16.9809C13.3064 17.2869 13.8604 17.4699 14.2914 17.6069C15.0034 17.8329 15.6514 17.8009 16.1634 17.7249C16.7344 17.6399 17.9214 17.0059 18.1694 16.3119C18.4174 15.6169 18.4174 15.0219 18.3424 14.8979Z" fill="#767676"/>
</svg>
