<svg width="25" height="25" viewBox="0 0 25 25" fill="none" xmlns="http://www.w3.org/2000/svg">
<g opacity="0.7">
<path d="M21.3584 4.66895H3.3584C3.15949 4.66895 2.96872 4.74796 2.82807 4.88862C2.68742 5.02927 2.6084 5.22003 2.6084 5.41895V18.1689C2.6084 18.5668 2.76643 18.9483 3.04774 19.2296C3.32904 19.5109 3.71057 19.6689 4.1084 19.6689H20.6084C21.0062 19.6689 21.3878 19.5109 21.6691 19.2296C21.9504 18.9483 22.1084 18.5668 22.1084 18.1689V5.41895C22.1084 5.22003 22.0294 5.02927 21.8887 4.88862C21.7481 4.74796 21.5573 4.66895 21.3584 4.66895ZM19.43 6.16895L12.3584 12.6518L5.28684 6.16895H19.43ZM20.6084 18.1689H4.1084V7.12426L11.8512 14.2221C11.9896 14.3491 12.1706 14.4196 12.3584 14.4196C12.5462 14.4196 12.7272 14.3491 12.8656 14.2221L20.6084 7.12426V18.1689Z" fill="#202924"/>
</g>
</svg>
