<svg width="25" height="25" viewBox="0 0 25 25" fill="none" xmlns="http://www.w3.org/2000/svg">
<path opacity="0.7" d="M16.1084 14.419C16.1084 16.0727 14.4266 17.419 12.3584 17.419C10.2903 17.419 8.60843 16.0727 8.60843 14.419C8.60843 14.2201 8.68745 14.0293 8.8281 13.8886C8.96875 13.748 9.15952 13.669 9.35843 13.669C9.55734 13.669 9.74811 13.748 9.88876 13.8886C10.0294 14.0293 10.1084 14.2201 10.1084 14.419C10.1084 15.2318 11.1397 15.919 12.3584 15.919C13.5772 15.919 14.6084 15.2318 14.6084 14.419C14.6084 13.5302 13.8012 13.2002 12.0884 12.7071C10.6119 12.2815 8.77531 11.7518 8.77531 9.91898C8.77531 8.20898 10.3156 6.91898 12.3584 6.91898C13.8322 6.91898 15.0941 7.60335 15.6509 8.70023C15.699 8.78841 15.7288 8.88533 15.7387 8.98527C15.7486 9.0852 15.7383 9.1861 15.7085 9.28198C15.6786 9.37786 15.6298 9.46677 15.565 9.54345C15.5001 9.62012 15.4206 9.68298 15.331 9.72832C15.2414 9.77365 15.1436 9.80053 15.0434 9.80736C14.9432 9.81419 14.8427 9.80084 14.7477 9.76808C14.6528 9.73533 14.5654 9.68384 14.4908 9.61668C14.4161 9.54952 14.3557 9.46805 14.3131 9.3771C14.0122 8.78835 13.2631 8.41898 12.3584 8.41898C11.1706 8.41898 10.2753 9.06398 10.2753 9.91898C10.2753 10.5752 11.1191 10.8659 12.5037 11.2652C14.0253 11.7002 16.1084 12.3049 16.1084 14.419ZM22.1084 16.669C22.1069 18.0609 21.5533 19.3954 20.5691 20.3796C19.5849 21.3639 18.2504 21.9175 16.8584 21.919C15.8174 21.9227 14.7993 21.6134 13.9362 21.0312C12.5093 21.2836 11.0426 21.1881 9.66047 20.7527C8.27836 20.3174 7.02165 19.555 5.99701 18.5304C4.97237 17.5058 4.21003 16.2491 3.77468 14.8669C3.33932 13.4848 3.24381 12.0181 3.49624 10.5912C2.91403 9.72814 2.6047 8.71002 2.60843 7.66898C2.60992 6.27705 3.16352 4.94256 4.14777 3.95831C5.13201 2.97407 6.4665 2.42047 7.85843 2.41898C8.89947 2.41525 9.9176 2.72458 10.7806 3.30679C12.2075 3.05436 13.6743 3.14987 15.0564 3.58522C16.4385 4.02057 17.6952 4.78292 18.7199 5.80756C19.7445 6.8322 20.5068 8.0889 20.9422 9.47102C21.3775 10.8531 21.4731 12.3199 21.2206 13.7468C21.8028 14.6098 22.1122 15.6279 22.1084 16.669ZM20.6084 16.669C20.6113 15.8402 20.3367 15.0343 19.8284 14.3796C19.7616 14.2932 19.7145 14.1932 19.6904 14.0866C19.6663 13.9801 19.6657 13.8695 19.6887 13.7627C19.9543 12.5354 19.9076 11.2611 19.5532 10.0565C19.1987 8.85192 18.5477 7.75546 17.6598 6.86756C16.7719 5.97966 15.6755 5.32868 14.4709 4.97422C13.2663 4.61977 11.992 4.57316 10.7647 4.83867C10.6579 4.86172 10.5474 4.86116 10.4408 4.83703C10.3342 4.8129 10.2343 4.76579 10.1478 4.69898C9.49314 4.19072 8.68723 3.91614 7.85843 3.91898C6.86387 3.91898 5.91004 4.31407 5.20678 5.01733C4.50352 5.72059 4.10843 6.67442 4.10843 7.66898C4.1056 8.49778 4.38017 9.30369 4.88843 9.95835C4.95524 10.0448 5.00236 10.1448 5.02648 10.2513C5.05061 10.3579 5.05117 10.4684 5.02812 10.5752C4.76261 11.8025 4.80922 13.0768 5.16368 14.2814C5.51813 15.486 6.16911 16.5825 7.05702 17.4704C7.94492 18.3583 9.04137 19.0093 10.246 19.3637C11.4506 19.7182 12.7249 19.7648 13.9522 19.4993C14.059 19.4762 14.1695 19.4768 14.2761 19.5009C14.3826 19.5251 14.4826 19.5722 14.5691 19.639C15.2237 20.1472 16.0296 20.4218 16.8584 20.419C17.853 20.419 18.8068 20.0239 19.5101 19.3206C20.2133 18.6174 20.6084 17.6635 20.6084 16.669Z" fill="#202924"/>
</svg>
