<svg width="25" height="25" viewBox="0 0 25 25" fill="none" xmlns="http://www.w3.org/2000/svg">
<g clip-path="url(#clip0_24_1121)">
<path fill-rule="evenodd" clip-rule="evenodd" d="M24.3584 12.1689C24.3584 18.7964 18.9858 24.1689 12.3584 24.1689C5.73098 24.1689 0.358398 18.7964 0.358398 12.1689C0.358398 5.54153 5.73098 0.168945 12.3584 0.168945C18.9858 0.168945 24.3584 5.54153 24.3584 12.1689ZM12.7884 9.02787C11.6212 9.51334 9.28854 10.5181 5.79029 12.0423C5.22223 12.2682 4.92466 12.4892 4.89757 12.7052C4.85178 13.0704 5.30911 13.2142 5.93187 13.4101C6.01658 13.4367 6.10435 13.4643 6.19434 13.4936C6.80704 13.6927 7.63122 13.9257 8.05969 13.935C8.44834 13.9434 8.88213 13.7831 9.36104 13.4543C12.6296 11.2479 14.3168 10.1328 14.4227 10.1087C14.4974 10.0918 14.601 10.0704 14.6712 10.1328C14.7413 10.1952 14.7344 10.3133 14.727 10.3449C14.6817 10.5381 12.8865 12.207 11.9575 13.0707C11.6679 13.34 11.4625 13.531 11.4205 13.5746C11.3264 13.6723 11.2305 13.7647 11.1384 13.8535C10.5692 14.4023 10.1423 14.8138 11.162 15.4857C11.652 15.8087 12.0442 16.0757 12.4354 16.3421C12.8626 16.633 13.2887 16.9232 13.84 17.2846C13.9805 17.3767 14.1146 17.4723 14.2453 17.5655C14.7425 17.9199 15.1891 18.2384 15.741 18.1876C16.0616 18.1581 16.3929 17.8566 16.5611 16.9573C16.9586 14.8321 17.74 10.2274 17.9206 8.32992C17.9364 8.16368 17.9165 7.95092 17.9006 7.85752C17.8846 7.76412 17.8512 7.63105 17.7298 7.53255C17.586 7.41588 17.364 7.39128 17.2648 7.39303C16.8134 7.40098 16.121 7.64176 12.7884 9.02787Z" fill="#767676"/>
</g>
<defs>
<clipPath id="clip0_24_1121">
<rect width="24" height="24" fill="white" transform="translate(0.358398 0.168945)"/>
</clipPath>
</defs>
</svg>
