<svg width="32" height="32" viewBox="0 0 32 32" fill="none" xmlns="http://www.w3.org/2000/svg">
<path d="M20.9517 6.5127H11.05C8.31453 6.5127 6.08911 8.73811 6.08911 11.4736V20.5322C6.08911 23.2678 8.31453 25.4932 11.05 25.4932H20.9517C23.6873 25.4932 25.9127 23.2678 25.9127 20.5322V11.4736C25.9127 8.73811 23.6873 6.5127 20.9517 6.5127ZM7.83917 11.4736C7.83917 9.70339 9.27981 8.26275 11.05 8.26275H20.9517C22.722 8.26275 24.1626 9.70339 24.1626 11.4736V20.5322C24.1626 22.3025 22.722 23.7431 20.9517 23.7431H11.05C9.27981 23.7431 7.83917 22.3025 7.83917 20.5322V11.4736Z" fill="#CCEEFF"/>
<path d="M15.9964 20.6177C18.5402 20.6177 20.6109 18.5481 20.6109 16.0032C20.6109 13.4582 18.5413 11.3887 15.9964 11.3887C13.4514 11.3887 11.3818 13.4582 11.3818 16.0032C11.3818 18.5481 13.4514 20.6177 15.9964 20.6177ZM15.9964 13.1399C17.576 13.1399 18.8608 14.4247 18.8608 16.0043C18.8608 17.584 17.576 18.8688 15.9964 18.8688C14.4167 18.8688 13.1319 17.584 13.1319 16.0043C13.1319 14.4247 14.4167 13.1399 15.9964 13.1399Z" fill="#CCEEFF"/>
<path d="M21.0456 12.1319C21.7306 12.1319 22.2889 11.5745 22.2889 10.8882C22.2889 10.2019 21.7317 9.64453 21.0456 9.64453C20.3594 9.64453 19.8022 10.2019 19.8022 10.8882C19.8022 11.5745 20.3594 12.1319 21.0456 12.1319Z" fill="#CCEEFF"/>
</svg>
