<svg width="32" height="32" viewBox="0 0 32 32" fill="none" xmlns="http://www.w3.org/2000/svg">
<path d="M23.7393 11.5776V14.599C23.2112 14.5474 22.5251 14.4274 21.7661 14.1494C20.775 13.7862 20.0373 13.2895 19.5541 12.905V19.0117L19.5418 18.9926C19.5497 19.1137 19.5541 19.237 19.5541 19.3615C19.5541 22.3941 17.0866 24.8628 14.0528 24.8628C11.0191 24.8628 8.55151 22.3941 8.55151 19.3615C8.55151 16.3288 11.0191 13.859 14.0528 13.859C14.3499 13.859 14.6414 13.8826 14.9262 13.9285V16.9062C14.6526 16.8087 14.3589 16.756 14.0528 16.756C12.6167 16.756 11.4474 17.9242 11.4474 19.3615C11.4474 20.7987 12.6167 21.9669 14.0528 21.9669C15.489 21.9669 16.6583 20.7976 16.6583 19.3615C16.6583 19.3076 16.6572 19.2538 16.6538 19.2V7.33301H19.673C19.6842 7.58862 19.6943 7.84648 19.7055 8.1021C19.7257 8.60548 19.905 9.08867 20.2178 9.48443C20.5844 9.94969 21.1259 10.4901 21.8861 10.9217C22.598 11.3242 23.2662 11.498 23.7393 11.5798V11.5776Z" fill="#CCEEFF"/>
</svg>
