<svg width="32" height="32" viewBox="0 0 32 32" fill="none" xmlns="http://www.w3.org/2000/svg">
<path d="M26.0746 12.6871C25.9487 11.4718 25.6778 10.1282 24.6805 9.42216C23.9081 8.87462 22.8928 8.85438 21.945 8.85551C19.9415 8.85551 17.9369 8.85888 15.9334 8.86001C14.0063 8.86226 12.0793 8.86338 10.1522 8.86563C9.34719 8.86563 8.56467 8.80379 7.81701 9.15233C7.17503 9.45139 6.67246 10.0203 6.37002 10.6533C5.95066 11.5336 5.86297 12.5309 5.81237 13.5045C5.71906 15.2775 5.72917 17.0551 5.84048 18.827C5.92255 20.1199 6.13055 21.5489 7.13006 22.373C8.01601 23.1027 9.26624 23.1387 10.4153 23.1398C14.0625 23.1432 17.7109 23.1466 21.3593 23.1488C21.827 23.1499 22.3149 23.1409 22.7917 23.0892C23.7293 22.988 24.6231 22.7193 25.2258 22.0245C25.834 21.3241 25.9903 20.3493 26.0825 19.4262C26.3074 17.1866 26.3051 14.9256 26.0746 12.6871ZM13.8242 19.1418V12.8625L19.2613 16.0016L13.8242 19.1418Z" fill="#CCEEFF"/>
</svg>
