<svg width="32" height="32" viewBox="0 0 32 32" fill="none" xmlns="http://www.w3.org/2000/svg">
<g clip-path="url(#clip0_2001_31)">
<path d="M25.087 19.8984C24.6298 19.3496 24.1102 18.8577 23.6077 18.382C23.429 18.2128 23.2443 18.0379 23.0662 17.8639C22.5549 17.3641 22.5363 17.1763 22.9411 16.6084C23.2212 16.2171 23.5181 15.8252 23.8053 15.4461C24.0657 15.1023 24.3351 14.7467 24.5932 14.3899L24.6462 14.3165C25.1397 13.6338 25.6499 12.9279 25.9215 12.0763C25.992 11.8516 26.0661 11.5209 25.8968 11.2445C25.7276 10.9682 25.3994 10.884 25.1672 10.8446C25.0523 10.8251 24.9383 10.8225 24.8324 10.8225L21.6012 10.8201L21.5745 10.8199C21.0859 10.8199 20.7567 11.0501 20.568 11.5238C20.3879 11.9764 20.19 12.4584 19.9642 12.9167C19.5149 13.8292 18.9443 14.8802 18.1186 15.7568L18.0837 15.7941C17.9862 15.8989 17.8757 16.0176 17.7949 16.0176C17.7826 16.0176 17.7691 16.0152 17.7538 16.0104C17.5828 15.9438 17.468 15.5297 17.4732 15.3371C17.4733 15.3345 17.4733 15.3318 17.4733 15.3291L17.4711 11.5945C17.4711 11.5815 17.4701 11.5687 17.4685 11.5559C17.3863 10.9488 17.2042 10.5708 16.5162 10.4361C16.4979 10.4325 16.4793 10.4307 16.4607 10.4307H13.1008C12.5534 10.4307 12.2518 10.6531 11.9682 10.9862C11.8917 11.0752 11.7324 11.2605 11.8114 11.4853C11.8915 11.7134 12.1515 11.7622 12.2362 11.7781C12.6566 11.8581 12.8935 12.1152 12.9606 12.5644C13.0778 13.3445 13.0922 14.1772 13.0059 15.1849C12.9819 15.4649 12.9343 15.6812 12.8559 15.866C12.8377 15.9091 12.7732 16.0499 12.7073 16.05C12.6864 16.05 12.6259 16.0417 12.5156 15.9658C12.255 15.7872 12.0643 15.5324 11.842 15.2177C11.0857 14.1489 10.451 12.9714 9.90126 11.6173C9.69739 11.1188 9.31664 10.8397 8.82866 10.8315C8.29248 10.8233 7.80635 10.8194 7.34271 10.8194C6.83612 10.8194 6.36647 10.8241 5.90786 10.8336C5.51526 10.8405 5.2437 10.9582 5.10081 11.1837C4.95769 11.4093 4.967 11.7056 5.1285 12.0644C6.42133 14.9385 7.59352 17.0283 8.92936 18.8405C9.86536 20.1086 10.8042 20.9864 11.8836 21.6026C13.0208 22.2532 14.2953 22.5695 15.7797 22.5695C15.9479 22.5695 16.1219 22.5654 16.2974 22.5572C17.1599 22.5151 17.4799 22.2029 17.5204 21.3631C17.5396 20.9339 17.5866 20.4838 17.7975 20.0999C17.9307 19.8581 18.0549 19.8581 18.0957 19.8581C18.1743 19.8581 18.2718 19.8943 18.3764 19.9621C18.5642 20.0846 18.7252 20.2488 18.8571 20.3922C18.9814 20.5284 19.1042 20.6661 19.2271 20.8038C19.4924 21.1009 19.7668 21.4081 20.0534 21.6995C20.6807 22.3377 21.3717 22.6184 22.1654 22.5575H25.1279C25.1342 22.5575 25.1406 22.5573 25.1469 22.5569C25.4421 22.5374 25.6977 22.3736 25.8483 22.1076C26.0349 21.7781 26.0311 21.3577 25.8383 20.9828C25.6195 20.5588 25.3357 20.1966 25.087 19.8984Z" fill="#CCEEFF"/>
</g>
<defs>
<clipPath id="clip0_2001_31">
<rect width="21" height="21" fill="white" transform="translate(5 6)"/>
</clipPath>
</defs>
</svg>
