<svg width="24" height="24" viewBox="0 0 24 24" fill="none" xmlns="http://www.w3.org/2000/svg">
<g opacity="0.7">
<path d="M10.4286 8.22222C10.4286 7.91456 10.5207 7.61381 10.6934 7.358C10.8661 7.10219 11.1115 6.90281 11.3986 6.78508C11.6858 6.66734 12.0017 6.63653 12.3066 6.69656C12.6114 6.75658 12.8914 6.90473 13.1112 7.12228C13.3309 7.33983 13.4806 7.617 13.5412 7.91875C13.6019 8.2205 13.5707 8.53327 13.4518 8.81751C13.3329 9.10175 13.1315 9.34469 12.873 9.51562C12.6146 9.68655 12.3108 9.77778 12 9.77778C11.5832 9.77778 11.1835 9.61389 10.8888 9.32217C10.5941 9.03044 10.4286 8.63478 10.4286 8.22222ZM5.71429 8.22222C5.71429 6.57199 6.37653 4.98934 7.55533 3.82245C8.73413 2.65555 10.3329 2 12 2C13.6671 2 15.2659 2.65555 16.4447 3.82245C17.6235 4.98934 18.2857 6.57199 18.2857 8.22222C18.2857 14.0507 12.6305 17.3164 12.3929 17.4535C12.2741 17.5207 12.1397 17.556 12.0029 17.556C11.8662 17.556 11.7318 17.5207 11.613 17.4535C11.3695 17.3164 5.71429 14.0556 5.71429 8.22222ZM7.28571 8.22222C7.28571 12.325 10.8057 15.0482 12 15.8542C13.1933 15.0492 16.7143 12.325 16.7143 8.22222C16.7143 6.98455 16.2176 5.79756 15.3335 4.92239C14.4494 4.04722 13.2503 3.55556 12 3.55556C10.7497 3.55556 9.5506 4.04722 8.6665 4.92239C7.7824 5.79756 7.28571 6.98455 7.28571 8.22222ZM19.3435 14.7974C19.1501 14.7341 18.9395 14.7477 18.756 14.8352C18.5725 14.9227 18.4305 15.0773 18.36 15.2664C18.2894 15.4555 18.2958 15.6644 18.3778 15.8489C18.4597 16.0335 18.6109 16.1793 18.7994 16.2557C20.4209 16.8497 21.4286 17.645 21.4286 18.3333C21.4286 19.6322 17.8418 21.4444 12 21.4444C6.15821 21.4444 2.57143 19.6322 2.57143 18.3333C2.57143 17.645 3.57911 16.8497 5.20063 16.2567C5.38911 16.1803 5.54027 16.0345 5.62225 15.8499C5.70422 15.6654 5.7106 15.4565 5.64004 15.2674C5.56948 15.0783 5.42749 14.9237 5.24401 14.8362C5.06053 14.7487 4.8499 14.7351 4.65652 14.7983C2.29839 15.6587 1 16.9149 1 18.3333C1 21.3647 6.66795 23 12 23C17.3321 23 23 21.3647 23 18.3333C23 16.9149 21.7016 15.6588 19.3435 14.7974Z" fill="#202924"/>
</g>
</svg>
