<svg width="28" height="27" viewBox="0 0 28 27" fill="none" xmlns="http://www.w3.org/2000/svg"><path fill-rule="evenodd" clip-rule="evenodd" d="M26.7423 0.961156C27.1284 1.35599 27.1214 1.98911 26.7266 2.37528L2.67187 25.902C2.27704 26.2882 1.64392 26.2812 1.25775 25.8864C0.871581 25.4915 0.878606 24.8584 1.27344 24.4722L25.3281 0.945466C25.723 0.559298 26.3561 0.566323 26.7423 0.961156Z" fill="#000D33"/><path fill-rule="evenodd" clip-rule="evenodd" d="M1.25775 0.961156C1.64392 0.566323 2.27704 0.559298 2.67187 0.945466L26.7266 24.4722C27.1214 24.8584 27.1284 25.4915 26.7423 25.8864C26.3561 26.2812 25.723 26.2882 25.3281 25.902L1.27344 2.37528C0.878606 1.98911 0.871581 1.35599 1.25775 0.961156Z" fill="#000D33"/></svg>
