<svg width="148" height="147" viewBox="0 0 148 147" fill="none" xmlns="http://www.w3.org/2000/svg">
<path d="M137.822 57.3101C135.362 54.7398 132.818 52.0913 131.859 49.7625C130.972 47.6293 130.92 44.0936 130.868 40.6688C130.77 34.3019 130.666 27.087 125.649 22.0705C120.632 17.0539 113.418 16.9496 107.051 16.8517C103.626 16.7995 100.09 16.7473 97.957 15.8601C95.6347 14.9012 92.9796 12.3571 90.4094 9.89772C85.9082 5.57269 80.7939 0.673584 73.9834 0.673584C67.1729 0.673584 62.0651 5.57269 57.5574 9.89772C54.9871 12.3571 52.3386 14.9012 50.0098 15.8601C47.8896 16.7473 44.3409 16.7995 40.9161 16.8517C34.5492 16.9496 27.3343 17.0539 22.3178 22.0705C17.3012 27.087 17.2295 34.3019 17.099 40.6688C17.0468 44.0936 16.9946 47.6293 16.1075 49.7625C15.1485 52.0848 12.6044 54.7398 10.145 57.3101C5.82 61.8112 0.920898 66.9256 0.920898 73.7361C0.920898 80.5466 5.82 85.6544 10.145 90.1621C12.6044 92.7323 15.1485 95.3809 16.1075 97.7097C16.9946 99.8429 17.0468 103.379 17.099 106.803C17.1969 113.17 17.3012 120.385 22.3178 125.402C27.3343 130.418 34.5492 130.523 40.9161 130.62C44.3409 130.673 47.8766 130.725 50.0098 131.612C52.3321 132.571 54.9871 135.115 57.5574 137.574C62.0586 141.899 67.1729 146.799 73.9834 146.799C80.7939 146.799 85.9017 141.899 90.4094 137.574C92.9796 135.115 95.6282 132.571 97.957 131.612C100.09 130.725 103.626 130.673 107.051 130.62C113.418 130.523 120.632 130.418 125.649 125.402C130.666 120.385 130.77 113.17 130.868 106.803C130.92 103.379 130.972 99.8429 131.859 97.7097C132.818 95.3874 135.362 92.7323 137.822 90.1621C142.147 85.6609 147.046 80.5466 147.046 73.7361C147.046 66.9256 142.147 61.8178 137.822 57.3101ZM103.769 61.7721L67.2382 98.3034C66.7535 98.7886 66.1779 99.1735 65.5444 99.4361C64.9108 99.6988 64.2317 99.8339 63.5459 99.8339C62.8601 99.8339 62.181 99.6988 61.5474 99.4361C60.9139 99.1735 60.3383 98.7886 59.8536 98.3034L44.1974 82.6471C43.2181 81.6679 42.668 80.3397 42.668 78.9548C42.668 77.57 43.2181 76.2418 44.1974 75.2626C45.1766 74.2833 46.5048 73.7332 47.8896 73.7332C49.2745 73.7332 50.6027 74.2833 51.5819 75.2626L63.5459 87.2331L96.3849 54.3876C96.8698 53.9027 97.4454 53.5181 98.0789 53.2557C98.7124 52.9932 99.3914 52.8582 100.077 52.8582C100.763 52.8582 101.442 52.9932 102.075 53.2557C102.709 53.5181 103.285 53.9027 103.769 54.3876C104.254 54.8724 104.639 55.4481 104.901 56.0816C105.164 56.7151 105.299 57.3941 105.299 58.0798C105.299 58.7656 105.164 59.4446 104.901 60.0781C104.639 60.7116 104.254 61.2872 103.769 61.7721Z" fill="#52A436" fill-opacity="0.93"/>
</svg>
